<?xml version="1.0" encoding="UTF-8"?>
<svg id="Layer_3" xmlns="http://www.w3.org/2000/svg" version="1.1" viewBox="0 0 272.76 108.04">
  <!-- Generator: Adobe Illustrator 30.8.2, SVG Export Plug-In . SVG Version: 2.1.4 Build 7)  -->
  <defs>
    <style>
      .st0, .st1 {
        <!-- fill: #231f20; -->
        fill: #ffffff;
      }

      .st2, .st3 {
        fill: #fff;
      }

      .st3 {
        stroke: #ffffff;
        stroke-miterlimit: 10;
      }

      .st4 {
        fill: #e21e26;
      }

      .st1 {
        font-family: ParisineStdClair-Bold, 'Parisine Std Clair';
        font-size: 10.3px;
        font-weight: 700;
      }
    </style>
  </defs>
  <g>
    <rect class="st4" x="14.13" y="13.35" width="82.83" height="82.83"/>
    <g>
      <g>
        <rect class="st2" x="84.24" y="40.56" width="3.94" height="15.82"/>
        <g>
          <path class="st2" d="M22.69,40.56h7.06c3.74,0,5.33,1.68,5.33,4.14v.09c0,1.77-.91,2.94-2.68,3.41,1.95.33,3.16,1.5,3.16,3.7v.09c0,2.83-1.84,4.4-5.75,4.4h-7.13v-15.82ZM28.84,46.85c1.42,0,1.95-.49,1.95-1.61v-.09c0-1.08-.58-1.57-1.95-1.57h-1.73v3.27h1.73ZM29,53.35c1.44,0,2.1-.66,2.1-1.84v-.09c0-1.19-.64-1.81-2.23-1.81h-1.75v3.74h1.88Z"/>
          <path class="st2" d="M36.78,44.81h3.96v2.3c.73-1.73,1.95-2.48,3.74-2.46v3.7c-2.41-.07-3.74.69-3.74,2.54v5.49h-3.96v-11.57Z"/>
          <path class="st2" d="M45.5,41.67c0-1.17.93-2.06,2.17-2.06s2.19.89,2.19,2.06-.95,2.04-2.19,2.04-2.17-.86-2.17-2.04M45.7,44.81h3.96v11.57h-3.96v-11.57Z"/>
          <path class="st2" d="M50.89,52.71h3.65c.13.84.51,1.31,1.64,1.31.97,0,1.42-.38,1.42-.95s-.55-.82-2.15-1.04c-3.1-.4-4.4-1.3-4.4-3.72,0-2.57,2.28-3.81,4.96-3.81,2.85,0,4.85.97,5.11,3.74h-3.58c-.16-.77-.58-1.15-1.48-1.15s-1.31.38-1.31.91.53.77,1.95.95c3.21.4,4.76,1.24,4.76,3.72,0,2.74-2.04,3.98-5.24,3.98s-5.22-1.37-5.31-3.94"/>
          <path class="st2" d="M63.32,52.67v-5.16h-1.39v-2.7h1.39v-2.41h3.96v2.41h2.28v2.7h-2.28v4.78c0,.84.42,1.22,1.17,1.22.44,0,.77-.07,1.13-.2v3.01c-.51.13-1.26.33-2.19.33-2.61,0-4.07-1.26-4.07-3.98"/>
          <path class="st2" d="M70.24,50.74v-.18c0-3.72,2.77-6.06,6.35-6.06s6.31,2.28,6.31,5.95v.18c0,3.76-2.77,6.02-6.33,6.02s-6.33-2.17-6.33-5.91M78.87,50.67v-.18c0-1.95-.77-3.03-2.28-3.03s-2.3,1.04-2.3,2.99v.18c0,1.99.77,3.08,2.3,3.08s2.28-1.11,2.28-3.03"/>
        </g>
      </g>
      <g>
        <path class="st2" d="M22.36,31.39v-9.4h4.54v9.21c0,2.23.55,3.32,2.48,3.32s2.48-1.02,2.48-3.38v-9.14h4.58v9.34c0,4.6-2.7,6.75-7.06,6.75s-7.01-2.26-7.01-6.68"/>
        <polygon class="st2" points="37.12 21.99 41.7 21.99 43.74 31.85 45.86 21.99 49.89 21.99 52.19 31.94 54.34 21.99 58.54 21.99 54.85 37.81 50.11 37.81 47.68 27.76 45.22 37.81 40.79 37.81 37.12 21.99"/>
        <polygon class="st2" points="63.73 34.31 63.73 31.43 67.81 31.43 68.84 31.43 68.84 28.2 67.81 28.2 63.73 28.2 63.73 25.48 70.15 25.48 70.15 21.99 59.22 21.99 59.22 37.81 70.5 37.81 70.5 34.31 63.73 34.31"/>
      </g>
    </g>
  </g>
  <line class="st3" x1="110.51" y1="13.42" x2="110.51" y2="95.97"/>
  <path class="st0" d="M129.86,17v19.87h-4.07v-19.87h-4.21v-3.51h12.45v3.51h-4.17Z"/>
  <path class="st0" d="M145.56,36.88v-10.57h-5.43v10.57h-4.04V13.49h4.04v9.41h5.43v-9.41h4.04v23.39h-4.04Z"/>
  <path class="st0" d="M153.11,36.88V13.49h9.34v3.41h-5.3v6.13h5.1v3.15h-5.1v7.29h5.63v3.41h-9.67Z"/>
  <path class="st0" d="M178.35,36.88h-6.03V13.49h6c3.25,0,6.63,1.42,6.63,5.6,0,2.48-1.33,4.21-2.85,4.9v.07c1.66.66,3.35,2.35,3.35,5.63,0,5.13-3.28,7.19-7.09,7.19ZM177.89,16.37h-1.52v6.86h1.95c1.59,0,2.58-1.59,2.58-3.54,0-2.45-1.46-3.31-3.01-3.31ZM178.39,25.85h-2.02v8.15h1.59c1.79,0,3.38-1.26,3.38-4.31,0-2.55-1.33-3.84-2.95-3.84Z"/>
  <path class="st0" d="M197.43,36.88l-3.11-8.65c-.26-.66-.4-.79-.96-.79h-1.06v9.44h-4.07V13.49h5.96c3.18,0,6.63,1.36,6.63,6.59,0,3.58-1.76,5.37-3.05,6.03.89,2.49,3.08,8.12,4.17,10.77h-4.5ZM193.76,16.6h-1.46v7.82h1.46c1.79,0,3.01-1.36,3.01-4.07,0-3.11-1.56-3.74-3.01-3.74Z"/>
  <path class="st0" d="M203.89,36.88V13.49h4.07v23.39h-4.07Z"/>
  <path class="st0" d="M217.21,36.88h-5.73V13.49h5.73c4.74,0,8.68,2.98,8.68,11.16,0,8.88-3.91,12.22-8.68,12.22ZM216.81,16.67h-1.29v17.03h1.33c2.48,0,4.9-2.05,4.9-8.88s-2.35-8.15-4.94-8.15Z"/>
  <path class="st0" d="M236.85,37.17c-5.9,0-8.78-4.51-8.78-11.86s3.15-12.12,9.24-12.12c1.69,0,3.11.3,4.31,1.09l-1.06,3.48c-.86-.7-1.79-.99-2.91-.99-4.04,0-5.43,4.07-5.43,8.68,0,4.31.96,8.38,4.41,8.38.46,0,1.06-.1,1.36-.23v-4.7h-2.65v-3.18h6.39v10.47c-1.32.63-3.34.99-4.87.99Z"/>
  <path class="st0" d="M244.87,36.88V13.49h9.34v3.41h-5.3v6.13h5.1v3.15h-5.1v7.29h5.63v3.41h-9.67Z"/>
  <g>
    <path class="st0" d="M126.08,68.64c-1.76,0-3.21-.36-4.27-1.06l1.03-3.38c.73.6,1.76.99,2.88.99,1.85,0,2.78-1.19,2.78-2.91,0-4.04-6.43-4.44-6.43-10.96,0-3.98,2.32-6.66,6.13-6.66,1.59,0,2.85.3,3.88.96l-.96,3.41c-.73-.6-1.62-.93-2.58-.93-1.66,0-2.52,1.09-2.52,2.65,0,3.64,6.39,4.21,6.39,10.87,0,4.21-2.42,7.02-6.33,7.02Z"/>
    <path class="st0" d="M141.45,48.47v19.87h-4.07v-19.87h-4.21v-3.51h12.45v3.51h-4.17Z"/>
    <path class="st0" d="M154.04,68.64c-4.37,0-6.69-3.08-6.69-8.91v-14.77h4.04v15.01c0,3.38.73,5.27,2.78,5.27,1.89,0,2.75-1.62,2.75-5.27v-15.01h3.84v14.77c0,5.96-2.15,8.91-6.72,8.91Z"/>
    <path class="st0" d="M169.68,68.34h-5.73v-23.39h5.73c4.74,0,8.68,2.98,8.68,11.16,0,8.88-3.91,12.22-8.68,12.22ZM169.28,48.14h-1.29v17.03h1.33c2.48,0,4.9-2.05,4.9-8.88s-2.35-8.15-4.94-8.15Z"/>
    <path class="st0" d="M180.94,68.34v-23.39h4.07v23.39h-4.07Z"/>
    <path class="st0" d="M195.08,68.64c-4.9,0-7.42-4.41-7.42-12.02s2.75-11.96,7.42-11.96c4.94,0,7.49,4.41,7.49,11.99s-2.78,11.99-7.49,11.99ZM195.08,47.94c-2.55,0-3.35,4.24-3.35,8.65s.79,8.78,3.35,8.78,3.35-4.27,3.35-8.71-.73-8.71-3.35-8.71Z"/>
    <path class="st0" d="M208.27,68.64c-1.76,0-3.21-.36-4.27-1.06l1.03-3.38c.73.6,1.76.99,2.88.99,1.85,0,2.78-1.19,2.78-2.91,0-4.04-6.43-4.44-6.43-10.96,0-3.98,2.32-6.66,6.13-6.66,1.59,0,2.85.3,3.88.96l-.96,3.41c-.73-.6-1.62-.93-2.58-.93-1.66,0-2.52,1.09-2.52,2.65,0,3.64,6.39,4.21,6.39,10.87,0,4.21-2.42,7.02-6.33,7.02Z"/>
  </g>
  <text class="st1" transform="translate(121.45 84.17)"><tspan x="0" y="0">CONNECTING TECHNOLOGY </tspan><tspan x="0" y="12">WITH CREATIVITY</tspan></text>
</svg>
